<svg width="25" height="25" viewBox="0 0 25 25" fill="none" xmlns="http://www.w3.org/2000/svg">
<path d="M18.61 25C16.7059 25 14.3699 24.1232 11.7964 22.3956C6.59298 18.904 0.503657 11.738 0.0317032 6.8959C-0.119206 5.34729 0.26913 4.09775 1.18618 3.18069L4.36688 0L10.8435 6.47659L10.3256 6.99447C9.49947 7.82074 8.14571 9.1716 7.17785 10.1329C8.0682 11.4404 9.78695 13.3726 11.0551 14.6408C12.2555 15.8401 13.6445 16.9319 14.8964 17.7681C15.7981 16.8603 17.012 15.6428 18.0047 14.648L18.5234 14.1296L25 20.6076L21.8579 23.7497C21.0217 24.5859 19.918 25 18.61 25Z" fill="white"/>
</svg>
