<svg width="32" height="32" viewBox="0 0 32 32" fill="none" xmlns="http://www.w3.org/2000/svg">
<path d="M30.4405 7.88898V7.85204C30.1053 6.49409 29.2303 5.09068 28.0826 3.90886C26.7417 2.5225 25.0343 1.43443 23.4036 1.08216H23.3695C18.5066 0.150348 13.5109 0.150348 8.64793 1.08216H8.61384C5.58543 1.73841 2.2985 4.90318 1.56554 7.85204V7.88898C0.665001 11.9773 0.665001 16.2126 1.56554 20.3009V20.335C2.08827 22.4373 3.90645 24.6475 6.00304 25.9827C6.68775 26.4289 7.43307 26.7743 8.21611 27.0083V30.2981C8.21722 30.561 8.29658 30.8176 8.44408 31.0352C8.59158 31.2529 8.80054 31.4217 9.04433 31.5201C9.28812 31.6185 9.55569 31.6421 9.81295 31.5879C10.0702 31.5337 10.3055 31.4041 10.4888 31.2157L13.8241 27.7498C14.5457 27.7895 15.2729 27.8123 15.9945 27.8123C18.4646 27.8115 20.9292 27.5775 23.3553 27.1134H23.3894C26.4093 26.4543 29.6991 23.2895 30.4263 20.3407V20.3066C31.3324 16.2175 31.3372 11.9801 30.4405 7.88898ZM27.8013 19.693C27.3127 21.6162 24.8184 24.0111 22.8326 24.4515C20.2533 24.9456 17.6283 25.1599 15.003 25.0907C14.9775 25.0891 14.9519 25.0934 14.9283 25.1033C14.9046 25.1131 14.8836 25.1282 14.8667 25.1475L12.432 27.6475L9.84111 30.3038C9.79967 30.3476 9.74602 30.3779 9.68713 30.3909C9.62823 30.4039 9.5668 30.3988 9.51078 30.3765C9.45477 30.3542 9.40676 30.3155 9.37296 30.2656C9.33916 30.2156 9.32114 30.1567 9.32122 30.0964V24.6418C9.32129 24.598 9.30598 24.5555 9.27795 24.5217C9.24992 24.488 9.21095 24.4651 9.16782 24.4572C8.75362 24.3588 8.3543 24.206 7.98032 24.0026C6.29282 23.102 4.59111 21.2555 4.19907 19.693C3.38702 15.9975 3.38702 12.1697 4.19907 8.4742C4.68486 6.55943 7.19338 4.17023 9.16498 3.72704C13.6799 2.86316 18.3177 2.86316 22.8326 3.72704C23.9263 3.97136 25.1763 4.80375 26.1536 5.82648C26.9576 6.65886 27.5741 7.61909 27.8013 8.48273C28.6121 12.1755 28.6121 16.0002 27.8013 19.693Z" fill="white"/>
<path d="M22.9037 19.9771C22.5346 20.8194 21.9001 21.5178 21.0969 21.9657C20.8449 22.0726 20.5833 22.1554 20.3156 22.2129C20.0117 22.1219 19.7219 22.0594 19.4634 21.9487C17.3098 21.1106 15.3051 19.9318 13.5259 18.4572C12.9973 18.0065 12.5009 17.5195 12.0401 16.9998C10.9021 15.6893 9.94648 14.231 9.19915 12.6646C8.83551 11.9231 8.5287 11.156 8.2162 10.3918C7.9321 9.69581 8.35256 8.97138 8.78438 8.45149C9.20706 7.96934 9.72697 7.58208 10.3099 7.31513C10.5151 7.21203 10.7499 7.18399 10.9735 7.23589C11.1972 7.28778 11.3956 7.41632 11.5344 7.59922C12.2602 8.41472 12.9 9.30295 13.4435 10.2498C13.6147 10.5251 13.6733 10.8558 13.6072 11.1732C13.5411 11.4906 13.3553 11.7703 13.0884 11.9543C12.9463 12.0538 12.8043 12.1674 12.6821 12.2782C12.5617 12.3674 12.4578 12.477 12.3753 12.6021C12.3041 12.7191 12.2608 12.851 12.249 12.9875C12.2372 13.124 12.2571 13.2614 12.3071 13.389C12.8554 14.8975 13.6878 16.156 14.9321 17.0396C15.3532 17.3373 15.8069 17.5861 16.2844 17.781C16.5962 17.9506 16.9465 18.0367 17.3014 18.031C17.9207 17.9572 18.1253 17.2725 18.5571 16.9202C18.7553 16.758 19.0006 16.6639 19.2565 16.6522C19.5124 16.6404 19.7653 16.7115 19.9776 16.8549C20.4378 17.139 20.881 17.46 21.3242 17.7725C21.7625 18.0717 22.1845 18.3941 22.5884 18.7384C22.7772 18.8756 22.9122 19.0746 22.9697 19.3008C23.0273 19.527 23.004 19.7663 22.9037 19.9771Z" fill="white"/>
<path d="M16.8158 6.36337H16.4521C16.5686 6.35768 16.6908 6.36337 16.8158 6.36337Z" fill="white"/>
<path d="M23.1022 14.8778C22.8182 14.8778 22.6789 14.6363 22.6591 14.3721C22.6221 13.8522 22.5937 13.3295 22.5227 12.8124C22.3999 11.9401 22.0961 11.103 21.6307 10.355C21.1523 9.57582 20.5157 8.90568 19.7621 8.38793C19.0085 7.87018 18.1546 7.51637 17.2556 7.34936C16.8466 7.27549 16.4289 7.25845 16.017 7.21583C15.7556 7.18743 15.4119 7.17038 15.3551 6.84652C15.3466 6.78361 15.3516 6.71963 15.3698 6.65883C15.3881 6.59803 15.419 6.54181 15.4607 6.49395C15.5024 6.44608 15.5538 6.40766 15.6115 6.38126C15.6693 6.35485 15.732 6.34107 15.7954 6.34083C15.8635 6.33691 15.9318 6.33691 16 6.34083C17.2417 6.35134 18.4618 6.66794 19.5519 7.26259C20.6421 7.85724 21.5688 8.71158 22.25 9.74992C22.7877 10.5869 23.1528 11.5228 23.3238 12.5028C23.4318 13.1164 23.4716 13.7471 23.5199 14.3721C23.5296 14.4333 23.5261 14.496 23.5098 14.5558C23.4934 14.6156 23.4646 14.6713 23.4251 14.7191C23.3856 14.7669 23.3364 14.8058 23.2807 14.8331C23.2251 14.8605 23.1642 14.8757 23.1022 14.8778Z" fill="white"/>
<path d="M21.5657 13.5507C21.5641 13.6351 21.5526 13.719 21.5316 13.8007C21.5068 13.8828 21.4573 13.9553 21.3898 14.0083C21.3223 14.0613 21.2402 14.0923 21.1545 14.0969C21.0688 14.1016 20.9838 14.0797 20.911 14.0344C20.8381 13.989 20.7811 13.9223 20.7475 13.8433C20.7162 13.7286 20.7019 13.6099 20.7049 13.491C20.7115 12.8556 20.5857 12.2258 20.3356 11.6416C20.2787 11.5166 20.2162 11.3888 20.1452 11.2666C19.7386 10.5657 19.135 9.99964 18.4094 9.63877C17.9717 9.43209 17.5068 9.28861 17.0287 9.21263C16.8185 9.17854 16.6083 9.15865 16.3981 9.13024C16.3433 9.1275 16.2898 9.11355 16.2407 9.08928C16.1915 9.065 16.1479 9.0309 16.1125 8.9891C16.0771 8.94729 16.0506 8.89867 16.0348 8.84623C16.0189 8.79379 16.0139 8.73865 16.0202 8.68422C16.0203 8.62855 16.0321 8.57351 16.0549 8.52272C16.0777 8.47192 16.1109 8.42653 16.1525 8.38951C16.1941 8.35248 16.243 8.32467 16.2961 8.3079C16.3492 8.29113 16.4053 8.28577 16.4606 8.29218C17.2947 8.32437 18.1119 8.53763 18.8555 8.91718C19.7634 9.37407 20.504 10.1058 20.9719 11.0081C21.2354 11.5349 21.412 12.101 21.4947 12.6842C21.51 12.7603 21.5214 12.8371 21.5287 12.9143C21.543 13.0848 21.5486 13.2552 21.5628 13.4655C21.5628 13.4854 21.5657 13.5109 21.5657 13.5507Z" fill="white"/>
<path d="M19.6193 13.1588C19.6032 13.2309 19.5659 13.2964 19.5123 13.347C19.4586 13.3977 19.391 13.4311 19.3181 13.4429H19.2556C19.1626 13.449 19.0701 13.4245 18.9921 13.3732C18.9142 13.322 18.8551 13.2467 18.8238 13.1588C18.8062 13.1122 18.7947 13.0635 18.7897 13.014C18.7748 12.8228 18.7463 12.6329 18.7045 12.4458C18.6201 12.0669 18.4048 11.7299 18.0966 11.4941C17.9475 11.3871 17.7813 11.3064 17.6051 11.2554C17.3806 11.1901 17.1448 11.2071 16.9233 11.1532C16.8137 11.1337 16.7164 11.0717 16.6525 10.9807C16.5886 10.8896 16.5634 10.777 16.5823 10.6674C16.6035 10.5624 16.6622 10.4687 16.7474 10.4038C16.8326 10.339 16.9386 10.3075 17.0454 10.3151C18.3466 10.4088 19.3181 11.0338 19.5681 12.4287C19.5939 12.5582 19.6119 12.6891 19.6221 12.8208C19.638 12.933 19.6371 13.0469 19.6193 13.1588Z" fill="white"/>
</svg>
