<svg width="120" height="120" viewBox="0 0 120 120" fill="none" xmlns="http://www.w3.org/2000/svg">
<circle cx="60" cy="60" r="60" fill="#EDEFF5"/>
<path d="M65.5647 28.0931C60.4884 25.1567 53.9972 26.8992 51.0662 31.9853L24.7567 77.6413C21.8259 82.7273 23.5651 89.2308 28.6415 92.1672C33.7179 95.1036 40.2091 93.3611 43.14 88.2751L69.4497 42.619C72.3805 37.533 70.6411 31.0295 65.5647 28.0931Z" fill="#FFC107"/>
<path d="M65.5653 28.0931C63.194 26.7215 60.5143 26.3713 58.0327 26.9054C59.0865 27.1328 60.1237 27.5241 61.1074 28.0931C66.1838 31.0295 67.9232 37.533 64.9922 42.619L38.6827 88.2751C37.1209 90.9853 34.5479 92.7456 31.7168 93.3549C36.1008 94.3005 40.7776 92.3754 43.1404 88.2751L69.4499 42.619C72.381 37.533 70.6416 31.0295 65.5653 28.0931Z" fill="#FFB300"/>
<path d="M33.9355 93.5938C39.791 93.5938 44.5379 88.8379 44.5379 82.9713C44.5379 77.1046 39.791 72.3487 33.9355 72.3487C28.0799 72.3487 23.333 77.1046 23.333 82.9713C23.333 88.8379 28.0799 93.5938 33.9355 93.5938Z" fill="#4CAF50"/>
<path d="M31.7161 93.355C31.7156 93.3563 31.7153 93.3575 31.7148 93.3586C32.4311 93.5115 33.1734 93.5938 33.9353 93.5938C39.7908 93.5938 44.5377 88.8379 44.5377 82.9713C44.5377 81.6679 44.3023 80.4199 43.8736 79.2662L38.6822 88.2752C37.1202 90.9855 34.5473 92.7456 31.7161 93.355Z" fill="#43A047"/>
<path d="M95.7602 77.6413L69.4506 31.9854C66.5198 26.8994 60.0286 25.1568 54.9521 28.0932C49.8758 31.0297 48.1364 37.5331 51.0673 42.6192L77.377 88.2752C80.3078 93.3612 86.799 95.1038 91.8755 92.1674C96.9517 89.231 98.6911 82.7273 95.7602 77.6413Z" fill="#2196F3"/>
<path d="M95.7595 77.6413L69.45 31.9854C67.087 27.8851 62.4104 25.9598 58.0264 26.9056C60.8574 27.5148 63.4304 29.2751 64.9923 31.9854L91.3019 77.6415C94.2329 82.7275 92.4935 89.2309 87.4171 92.1674C86.4333 92.7364 85.3962 93.1277 84.3424 93.355C86.8239 93.8892 89.5037 93.5389 91.875 92.1674C96.9511 89.2309 98.6905 82.7273 95.7595 77.6413Z" fill="#1E88E5"/>
</svg>
