<svg width="120" height="120" viewBox="0 0 120 120" fill="none" xmlns="http://www.w3.org/2000/svg">
<g clip-path="url(#clip0_139_1253)">
<path d="M60 120C93.1371 120 120 93.1371 120 60C120 26.8629 93.1371 0 60 0C26.8629 0 0 26.8629 0 60C0 93.1371 26.8629 120 60 120Z" fill="#039BE5"/>
<path d="M26.9996 56.8192L80.9488 36.0871C83.4528 35.1855 85.6397 36.6959 84.8283 40.4696L84.833 40.465L75.6472 83.5977C74.9664 86.6557 73.1432 87.3993 70.5926 85.9586L56.604 75.6831L49.8569 82.1616C49.1108 82.9052 48.4813 83.5326 47.0359 83.5326L48.0291 69.344L73.9545 46C75.083 45.0101 73.7028 44.4524 72.2153 45.4377L40.1768 65.5425L26.3654 61.2482C23.3672 60.3002 23.3019 58.2599 26.9996 56.8192Z" fill="white"/>
</g>
<defs>
<clipPath id="clip0_139_1253">
<rect width="120" height="120" fill="white"/>
</clipPath>
</defs>
</svg>
