<svg width="120" height="120" viewBox="0 0 120 120" fill="none" xmlns="http://www.w3.org/2000/svg">
<g clip-path="url(#clip0_139_1214)">
<path d="M60 120C93.1371 120 120 93.1371 120 60C120 26.8629 93.1371 0 60 0C26.8629 0 0 26.8629 0 60C0 93.1371 26.8629 120 60 120Z" fill="#4D76A1"/>
<path fill-rule="evenodd" clip-rule="evenodd" d="M54.2482 83.1659H58.4324C58.4324 83.1659 59.6963 83.0269 60.3416 82.3301C60.9355 81.6905 60.9165 80.4892 60.9165 80.4892C60.9165 80.4892 60.8348 74.8655 63.4405 74.0374C66.0091 73.2217 69.3076 79.4726 72.8038 81.8761C75.4475 83.6951 77.4564 83.2963 77.4564 83.2963L86.8045 83.1659C86.8045 83.1659 91.6948 82.8641 89.376 79.0128C89.186 78.6978 88.0257 76.1639 82.4255 70.9572C76.5641 65.5077 77.3491 66.3891 84.4098 56.9627C88.7099 51.222 90.429 47.7172 89.892 46.2161C89.3798 44.7864 86.2172 45.1643 86.2172 45.1643L75.6917 45.23C75.6917 45.23 74.9115 45.1234 74.3328 45.4699C73.7674 45.8097 73.4034 46.6016 73.4034 46.6016C73.4034 46.6016 71.7375 51.044 69.5157 54.822C64.8289 62.7939 62.9549 63.2146 62.1889 62.7197C60.4071 61.566 60.8519 58.085 60.8519 55.612C60.8519 47.8867 62.0217 44.6655 58.574 43.8317C57.4298 43.5547 56.5879 43.3719 53.6619 43.3424C49.9063 43.3034 46.7276 43.3538 44.9277 44.2372C43.7303 44.8245 42.8067 46.1333 43.3692 46.2085C44.0648 46.3018 45.6404 46.634 46.4758 47.7734C47.5543 49.2431 47.5163 52.5442 47.5163 52.5442C47.5163 52.5442 48.1359 61.6383 46.069 62.7682C44.6502 63.543 42.704 61.961 38.5256 54.7287C36.3845 51.024 34.7681 46.9291 34.7681 46.9291C34.7681 46.9291 34.4564 46.1638 33.9005 45.7545C33.2257 45.2585 32.2831 45.1005 32.2831 45.1005L22.2812 45.1662C22.2812 45.1662 20.7797 45.2081 20.2285 45.862C19.7382 46.4436 20.1896 47.6468 20.1896 47.6468C20.1896 47.6468 28.02 65.997 36.8863 75.2444C45.0161 83.7227 54.2482 83.1659 54.2482 83.1659Z" fill="white"/>
</g>
<defs>
<clipPath id="clip0_139_1214">
<rect width="120" height="120" fill="white"/>
</clipPath>
</defs>
</svg>
