<svg width="100" height="100" viewBox="0 0 100 100" fill="none" xmlns="http://www.w3.org/2000/svg">
<g clip-path="url(#clip0_97_3341)">
<path d="M50.0008 29.1559C38.5622 29.1559 29.2563 38.4617 29.2563 49.9003C29.2563 61.3389 38.5622 70.6447 50.0008 70.6447C61.4393 70.6447 70.7452 61.3389 70.7452 49.9003C70.7452 38.4617 61.4393 29.1559 50.0008 29.1559ZM43.8363 41.0935H56.1652C57.7864 41.0935 59.1007 42.4078 59.1007 44.029C59.1007 45.6502 57.7864 46.9646 56.1652 46.9646H43.8363C42.2151 46.9646 40.9008 45.6502 40.9008 44.029C40.9008 42.4078 42.2151 41.0935 43.8363 41.0935ZM60.0794 58.7073H39.9221C38.3009 58.7073 36.9866 57.3929 36.9866 55.7717C36.9866 54.1506 38.3009 52.8362 39.9221 52.8362H60.0794C61.7006 52.8362 63.0149 54.1506 63.0149 55.7717C63.0149 57.3929 61.7006 58.7073 60.0794 58.7073Z" fill="#FF0000"/>
<path d="M67.5284 71.5794C67.0194 71.0704 66.2148 71.0038 65.6328 71.4275C61.2407 74.6261 55.8377 76.5158 50.0009 76.5158C36.7448 76.5158 25.7229 66.7739 23.7142 54.0738C23.6009 53.3574 22.9729 52.8358 22.2476 52.8358H1.56859C0.710047 52.8358 0.028808 53.5703 0.104936 54.4255C1.15038 66.1817 6.2582 77.0907 14.7523 85.5026C24.1857 94.8448 37 100.07 50.2763 99.9994C62.0368 99.9364 73.1636 95.8447 82.0829 88.382C82.7415 87.8311 82.779 86.83 82.172 86.223L67.5284 71.5794Z" fill="#297BFF"/>
<path d="M23.7126 45.7368C25.5031 34.389 34.4895 25.4024 45.8375 23.6121C46.5467 23.5001 47.0654 22.8827 47.0654 22.1649V7.3692C47.0654 6.49793 46.3107 5.81904 45.444 5.90828C24.6884 8.04261 8.14336 24.5876 6.00884 45.3432C5.91979 46.2098 6.59849 46.9646 7.46975 46.9646H22.2654C22.9832 46.9646 23.6007 46.4458 23.7126 45.7368Z" fill="#FF0000"/>
<path d="M77.7367 46.9646H98.4337C99.2993 46.9646 99.9723 46.2196 99.8954 45.3573C98.8537 33.69 93.8103 22.858 85.427 14.4746C77.0433 6.09108 66.2112 1.04764 54.5436 0.00611682C53.6814 -0.0707941 52.9365 0.60203 52.9365 1.46782V22.1649C52.9365 22.8829 53.4551 23.5003 54.1644 23.6121C65.5123 25.4026 74.499 34.3892 76.2894 45.7368C76.4012 46.446 77.0186 46.9646 77.7367 46.9646Z" fill="#297BFF"/>
<path d="M76.2901 54.0674C75.6206 58.3047 73.9474 62.2125 71.5226 65.5398C71.1007 66.1189 71.1741 66.9221 71.6806 67.4285L82.1406 77.8886C82.7514 78.4994 83.761 78.4581 84.3074 77.789C89.7793 71.0886 93.1256 63.0278 93.9992 54.4392C94.0867 53.5795 93.4017 52.8358 92.5377 52.8358H77.7377C77.0183 52.8358 76.4023 53.357 76.2901 54.0674Z" fill="#297BFF"/>
</g>
<defs>
<clipPath id="clip0_97_3341">
<rect width="100" height="100" fill="white"/>
</clipPath>
</defs>
</svg>
