<svg width="286" height="37" viewBox="0 0 286 37" fill="none" xmlns="http://www.w3.org/2000/svg">
<g clip-path="url(#clip0_97_3281)">
<path d="M195.679 15.3789L187.071 2.0861L190.097 0L198.11 12.3387L206.091 0L209.086 2.05376L200.478 15.3789H195.679Z" fill="#297BFF"/>
<path d="M195.679 21.6372L187.071 34.9139L190.097 37L198.11 24.6774L206.091 37L209.086 34.9462L200.478 21.6372H195.679Z" fill="#297BFF"/>
<path d="M201.105 16.0258L213.995 7.14774L216.017 10.285L204.053 18.5324L216.017 26.7797L214.026 29.8523L201.105 20.9742V16.0258Z" fill="#FF0000"/>
<path d="M195.036 16.0258L182.162 7.14774L180.14 10.285L192.088 18.5324L180.14 26.7797L182.131 29.8523L195.036 20.9742V16.0258Z" fill="#FF0000"/>
<path d="M233.187 15.7023H231.901V13.2605V11.4978V9.88067V3.57385H233.187V15.7023ZM231.917 11.5463C231.971 10.714 231.75 9.88741 231.29 9.20147C231.059 8.93018 230.77 8.71753 230.447 8.58009C230.123 8.44264 229.773 8.38412 229.424 8.40908C229.07 8.38027 228.714 8.43687 228.385 8.5744C228.055 8.71193 227.761 8.92662 227.527 9.20147C227.066 9.88741 226.845 10.714 226.899 11.5463C226.845 12.3836 227.066 13.2153 227.527 13.9073C227.764 14.1793 228.058 14.3919 228.387 14.5292C228.715 14.6665 229.07 14.7248 229.424 14.6997C229.774 14.7215 230.125 14.6599 230.448 14.5197C230.772 14.3795 231.06 14.1644 231.29 13.8912C231.748 13.2041 231.969 12.3783 231.917 11.5463ZM232.246 11.5463C232.251 12.0881 232.209 12.6293 232.121 13.1635C232.038 13.6498 231.868 14.1159 231.619 14.538C231.379 14.9418 231.038 15.2714 230.631 15.4921C230.144 15.7398 229.606 15.8619 229.063 15.8479C228.597 15.8501 228.136 15.7451 227.715 15.5406C227.294 15.3461 226.923 15.0526 226.633 14.6836C226.31 14.2765 226.065 13.8101 225.911 13.309C225.734 12.7287 225.649 12.1224 225.661 11.514C225.64 10.9021 225.714 10.2907 225.88 9.70279C226.031 9.20998 226.276 8.7535 226.601 8.36057C226.892 7.99155 227.263 7.698 227.683 7.50348C228.103 7.29355 228.565 7.18831 229.032 7.19623C229.576 7.17249 230.116 7.2951 230.6 7.552C231.006 7.76627 231.347 8.09053 231.588 8.48994C231.836 8.91203 232.007 9.37816 232.09 9.8645C232.192 10.419 232.244 10.9819 232.246 11.5463Z" fill="#180047"/>
<path d="M238.127 6.46854H239.695V4.85141H238.127V6.46854ZM239.617 15.0555V9.97772C239.654 9.29512 239.448 8.62206 239.037 8.08568C238.802 7.86053 238.525 7.68816 238.223 7.57958C237.92 7.47099 237.599 7.42856 237.28 7.45499H235.21V8.73253H238.096C238.161 8.70468 238.234 8.70468 238.3 8.73253C238.35 8.78395 238.378 8.85374 238.378 8.92659C238.387 9.05038 238.387 9.17473 238.378 9.29853V15.104L239.617 15.0555ZM235.21 15.7024H242.784V14.4248H235.21V15.7024Z" fill="#180047"/>
<path d="M244.744 11.5463C244.69 12.3837 244.911 13.2153 245.371 13.9074C245.609 14.1793 245.903 14.392 246.231 14.5293C246.56 14.6665 246.915 14.7248 247.269 14.6997C247.618 14.7247 247.968 14.6662 248.292 14.5287C248.615 14.3913 248.904 14.1786 249.135 13.9074C249.602 13.2187 249.824 12.3844 249.762 11.5463C249.824 10.7133 249.602 9.88403 249.135 9.2015C248.904 8.9302 248.615 8.71755 248.292 8.58011C247.968 8.44267 247.618 8.38414 247.269 8.4091C246.915 8.38029 246.559 8.43689 246.229 8.57442C245.9 8.71195 245.606 8.92664 245.371 9.2015C244.911 9.88744 244.69 10.7141 244.744 11.5463ZM243.474 11.5463C243.463 10.9209 243.554 10.2979 243.741 9.70281C243.886 9.20609 244.126 8.74426 244.446 8.34442C244.737 7.9754 245.107 7.68185 245.528 7.48734C245.953 7.27607 246.421 7.17083 246.892 7.18008C247.436 7.15634 247.977 7.27895 248.46 7.53585C248.866 7.75079 249.207 8.0749 249.448 8.47379C249.697 8.90179 249.867 9.37318 249.95 9.86452C250.058 10.3963 250.11 10.9384 250.107 11.4817C250.108 12.024 250.06 12.5653 249.966 13.0988C249.884 13.5881 249.708 14.0556 249.448 14.4733C249.213 14.8809 248.87 15.2116 248.46 15.4275C247.974 15.6758 247.435 15.7979 246.892 15.7832C246.421 15.7846 245.956 15.6797 245.528 15.476C245.107 15.2815 244.737 14.9879 244.446 14.6189C244.126 14.219 243.886 13.7572 243.741 13.2605C243.566 12.7068 243.476 12.1285 243.474 11.5463ZM249.746 13.2767V11.6595V9.89686V7.39031H251.032V16.3007C251.094 17.0009 250.898 17.6995 250.483 18.2574C250.253 18.478 249.981 18.6466 249.684 18.7524C249.387 18.8582 249.072 18.8989 248.758 18.872H244.274V17.5297H249.464C249.535 17.5296 249.602 17.5005 249.652 17.4489C249.673 17.3804 249.673 17.3071 249.652 17.2386C249.662 17.1257 249.662 17.012 249.652 16.899L249.746 13.2767Z" fill="#180047"/>
<path d="M255.83 6.46854H257.399V4.85141H255.83V6.46854ZM257.32 15.0555V9.97772C257.357 9.29512 257.151 8.62206 256.74 8.08568C256.506 7.86053 256.229 7.68816 255.926 7.57958C255.624 7.47099 255.303 7.42856 254.984 7.45499H252.835V8.73253H255.721C255.787 8.70781 255.859 8.70781 255.925 8.73253C255.947 8.79506 255.947 8.86405 255.925 8.92659C255.934 9.05038 255.934 9.17473 255.925 9.29853V15.104L257.32 15.0555ZM252.835 15.6539H260.409V14.4248H252.835V15.6539Z" fill="#180047"/>
<path d="M267.497 7.39031H259.907V8.68401H267.497V7.39031ZM262.416 4.85141V13.1311C262.357 13.831 262.553 14.5285 262.965 15.0879C263.197 15.3105 263.472 15.4803 263.772 15.5862C264.072 15.6921 264.39 15.7317 264.706 15.7024H267.497V14.3763H263.984C263.915 14.3695 263.849 14.3414 263.796 14.2955C263.785 14.2313 263.785 14.1656 263.796 14.1014C263.787 13.9776 263.787 13.8533 263.796 13.7295V4.85141H262.416Z" fill="#180047"/>
<path d="M275.416 10.5275H274.538H273.691H272.813C272.338 10.5449 271.866 10.6044 271.401 10.7054C270.976 10.7921 270.565 10.9391 270.178 11.142C269.833 11.3298 269.537 11.6018 269.316 11.9344C269.084 12.3045 268.969 12.7395 268.987 13.1796C268.962 13.844 269.187 14.4926 269.614 14.9908C269.858 15.2393 270.151 15.4313 270.473 15.554C270.794 15.6767 271.138 15.7272 271.48 15.7023C272.14 15.7209 272.796 15.5998 273.409 15.3466C273.874 15.1379 274.282 14.816 274.6 14.4086C274.894 14.035 275.103 13.5985 275.212 13.1311C275.319 12.6594 275.372 12.1763 275.369 11.6919H274.741C274.74 12.0284 274.709 12.364 274.647 12.6945C274.577 13.0282 274.438 13.3425 274.24 13.6162C274.009 13.8994 273.719 14.1259 273.393 14.2793C272.944 14.4633 272.464 14.5513 271.982 14.538C271.545 14.5622 271.111 14.4614 270.727 14.2469C270.57 14.1241 270.447 13.9609 270.37 13.7736C270.293 13.5864 270.265 13.3816 270.288 13.1796C270.281 12.9335 270.347 12.691 270.476 12.4843C270.628 12.2905 270.821 12.1355 271.041 12.0315C271.303 11.9233 271.577 11.8473 271.856 11.8051C272.178 11.7487 272.503 11.7109 272.828 11.6919H273.628H274.475H275.149H275.416V10.5275ZM274.741 10.5275V13.7618C274.723 14.0472 274.723 14.3335 274.741 14.6189C274.763 14.8224 274.821 15.02 274.914 15.201C275.007 15.354 275.144 15.4728 275.306 15.5406C275.545 15.6144 275.794 15.6472 276.043 15.6377H276.498V14.3763H275.98V10.8348C275.981 10.342 275.912 9.85178 275.776 9.37936C275.667 8.95755 275.469 8.56565 275.196 8.23119C274.926 7.9057 274.581 7.65545 274.193 7.50348C273.244 7.12583 272.193 7.12583 271.245 7.50348C270.843 7.66452 270.479 7.91269 270.178 8.23119C269.903 8.51673 269.68 8.85085 269.52 9.21764C269.381 9.56135 269.307 9.92894 269.3 10.3011H270.586C270.584 10.0475 270.643 9.79735 270.759 9.57341C270.877 9.35844 271.037 9.17118 271.229 9.02359C271.431 8.86416 271.66 8.74364 271.903 8.66782C272.157 8.58434 272.421 8.54072 272.687 8.53845C272.955 8.52035 273.224 8.55829 273.477 8.65C273.73 8.74171 273.963 8.88529 274.161 9.0721C274.357 9.26868 274.51 9.50584 274.61 9.76789C274.71 10.0299 274.755 10.3109 274.741 10.5922V10.5275Z" fill="#180047"/>
<path d="M282.864 15.104V6.14512C282.91 5.43626 282.691 4.73615 282.252 4.18839C282.022 3.96865 281.749 3.8006 281.452 3.69484C281.155 3.58907 280.84 3.54789 280.527 3.57387H278.034V4.85141H281.17C281.227 4.83965 281.286 4.83965 281.343 4.85141C281.37 4.87876 281.39 4.91163 281.404 4.94786C281.417 4.9841 281.423 5.02287 281.421 5.06164C281.431 5.18003 281.431 5.29901 281.421 5.41741V14.9585L282.864 15.104ZM278.426 15.7024H286V14.4248H278.426V15.7024Z" fill="#180047"/>
<path d="M232.074 25.0817H231.196L230.349 25.1626H229.471C228.998 25.1827 228.526 25.2367 228.06 25.3243C227.626 25.406 227.208 25.5588 226.821 25.7771C226.475 25.9643 226.179 26.2364 225.959 26.5695C225.74 26.9445 225.631 27.3771 225.645 27.8147C225.616 28.4799 225.841 29.1303 226.272 29.6259C226.516 29.8702 226.806 30.0585 227.125 30.1784C227.444 30.2982 227.784 30.3469 228.123 30.3212C228.788 30.3459 229.451 30.2246 230.067 29.9655C230.533 29.7654 230.942 29.4486 231.259 29.0437C231.547 28.6685 231.75 28.2322 231.855 27.7662C231.967 27.2951 232.025 26.812 232.027 26.3269H231.4C231.401 26.6644 231.364 27.0009 231.29 27.3295C231.228 27.6582 231.094 27.968 230.898 28.2351C230.676 28.5273 230.384 28.7557 230.051 28.8982C229.605 29.0902 229.123 29.1786 228.64 29.1569C228.199 29.1832 227.759 29.0824 227.37 28.8658C227.215 28.7444 227.094 28.5839 227.017 28.3997C226.94 28.2156 226.91 28.014 226.931 27.8147C226.922 27.5659 226.994 27.3212 227.135 27.1193C227.277 26.9226 227.466 26.7667 227.684 26.6665C227.944 26.5497 228.218 26.4682 228.499 26.4239C228.826 26.3741 229.156 26.3417 229.487 26.3269H230.287H231.133H231.808H232.074V25.0817ZM231.4 25.0817V28.316C231.4 28.6556 231.4 28.9305 231.4 29.1569C231.421 29.3605 231.48 29.558 231.572 29.7391C231.66 29.8969 231.799 30.0174 231.964 30.0787C232.201 30.1654 232.451 30.2039 232.701 30.1919H233.172V28.9467H232.654V25.4051C232.659 24.9079 232.596 24.4126 232.466 23.9336C232.348 23.5201 232.151 23.1353 231.886 22.8016C231.61 22.4794 231.267 22.2252 230.882 22.0577C230.418 21.8719 229.922 21.7839 229.424 21.7989C228.915 21.7907 228.409 21.8841 227.935 22.0739C227.535 22.2467 227.172 22.4995 226.868 22.8177C226.588 23.0991 226.365 23.4342 226.21 23.8042C226.064 24.1456 225.989 24.5147 225.99 24.8877H227.276C227.275 24.6291 227.334 24.374 227.448 24.1438C227.575 23.935 227.734 23.7492 227.919 23.594C228.122 23.4397 228.35 23.3246 228.593 23.2544C228.841 23.1708 229.1 23.1271 229.361 23.125C229.905 23.087 230.441 23.2731 230.851 23.6425C231.031 23.8443 231.17 24.0816 231.259 24.34C231.347 24.5984 231.385 24.8727 231.369 25.1464L231.4 25.0817Z" fill="#180047"/>
<path d="M235.728 26.1167C235.666 26.9548 235.888 27.789 236.355 28.4777C236.591 28.7454 236.883 28.9544 237.209 29.0888C237.535 29.2233 237.886 29.2797 238.236 29.2539C238.587 29.2822 238.939 29.2269 239.265 29.0922C239.591 28.9576 239.883 28.7474 240.118 28.4777C240.585 27.789 240.807 26.9548 240.745 26.1167C240.799 25.2844 240.578 24.4578 240.118 23.7719C239.616 23.2623 238.941 22.9766 238.236 22.9766C237.532 22.9766 236.856 23.2623 236.355 23.7719C235.887 24.4544 235.666 25.2836 235.728 26.1167ZM234.457 26.1167C234.447 25.5083 234.532 24.9022 234.708 24.3217C234.859 23.824 235.104 23.3623 235.43 22.9633C235.719 22.5952 236.083 22.2971 236.496 22.09C236.964 21.8823 237.468 21.7751 237.978 21.7751C238.487 21.7751 238.992 21.8823 239.46 22.09C239.86 22.3197 240.199 22.6473 240.447 23.0441C240.693 23.4675 240.863 23.9332 240.949 24.4187C241.043 24.9523 241.09 25.4935 241.09 26.0358C241.088 26.5774 241.046 27.118 240.965 27.653C240.883 28.1423 240.708 28.6098 240.447 29.0275C240.199 29.4243 239.86 29.752 239.46 29.9816C238.992 30.1894 238.487 30.2966 237.978 30.2966C237.468 30.2966 236.964 30.1894 236.496 29.9816C236.082 29.7825 235.718 29.4895 235.43 29.1246C235.104 28.7256 234.859 28.2638 234.708 27.7662C234.546 27.2321 234.462 26.6763 234.457 26.1167ZM240.73 27.847V26.2299V24.4672V21.9607H242.015V30.8711C242.072 31.5657 241.876 32.2572 241.467 32.8116C241.239 33.0356 240.967 33.2065 240.669 33.3125C240.371 33.4185 240.055 33.4573 239.742 33.4261H235.21V32.1001H240.4C240.47 32.0933 240.535 32.0651 240.589 32.0192C240.597 31.9495 240.597 31.8788 240.589 31.809C240.589 31.7282 240.589 31.615 240.589 31.4694L240.73 27.847Z" fill="#180047"/>
<path d="M249.621 27.4913C249.522 28.0371 249.232 28.5263 248.806 28.8658C248.347 29.1935 247.795 29.3529 247.238 29.3186C246.887 29.3444 246.536 29.288 246.21 29.1535C245.884 29.0191 245.592 28.8101 245.356 28.5424C244.896 27.8504 244.675 27.0187 244.729 26.1814C244.674 25.3491 244.896 24.5225 245.356 23.8365C245.589 23.564 245.88 23.3506 246.207 23.2132C246.533 23.0757 246.886 23.0179 247.238 23.0441C247.59 23.014 247.943 23.0701 248.27 23.2078C248.597 23.3455 248.888 23.561 249.119 23.8365C249.586 24.5191 249.808 25.3483 249.746 26.1814H251.017C251.098 25.0103 250.739 23.8518 250.013 22.9471C249.266 22.2097 248.272 21.7982 247.238 21.7982C246.203 21.7982 245.209 22.2097 244.462 22.9471C243.736 23.8518 243.377 25.0103 243.458 26.1814C243.372 27.3531 243.732 28.5135 244.462 29.4156C244.815 29.805 245.246 30.1096 245.726 30.308C246.206 30.5064 246.722 30.5937 247.238 30.5638C248.103 30.6028 248.954 30.3218 249.637 29.7714C250.302 29.1871 250.746 28.3797 250.891 27.4913H249.621ZM244.195 26.5371H251.032V26.1814L250.248 25.4052H244.195V26.5371Z" fill="#180047"/>
<path d="M252.835 30.2727H254.121V21.9607H252.835V30.2727ZM253.87 25.4213L254.121 26.8768C254.108 26.2173 254.182 25.5591 254.341 24.92C254.465 24.4909 254.667 24.0902 254.937 23.7395C255.152 23.469 255.434 23.2625 255.752 23.1412C256.044 23.0328 256.352 22.9781 256.662 22.9795C257.055 22.9606 257.447 23.0382 257.806 23.2059C258.117 23.3417 258.383 23.5661 258.575 23.8527C258.787 24.1679 258.931 24.5263 258.998 24.9039C259.082 25.3623 259.124 25.828 259.123 26.2946V30.3536H260.409V25.9873C260.417 25.4144 260.348 24.8431 260.205 24.2894C260.08 23.8102 259.867 23.3601 259.578 22.9633C259.304 22.5968 258.949 22.303 258.543 22.1062C258.086 21.8914 257.587 21.7864 257.085 21.799C256.655 21.7688 256.224 21.8341 255.821 21.9903C255.418 22.1465 255.052 22.3901 254.748 22.7046C254.166 23.4501 253.855 24.3829 253.87 25.3405V25.4213Z" fill="#180047"/>
<path d="M269.441 27.1355C269.321 28.063 268.894 28.9196 268.234 29.5612C267.533 30.1656 266.638 30.4771 265.725 30.4344C265.211 30.4642 264.698 30.3767 264.221 30.1782C263.743 29.9798 263.315 29.6752 262.965 29.2863C262.235 28.3841 261.875 27.2237 261.961 26.052C261.88 24.8809 262.239 23.7224 262.965 22.8177C263.317 22.4315 263.746 22.1287 264.222 21.9304C264.699 21.7322 265.212 21.6432 265.725 21.6696C266.618 21.6763 267.477 22.0217 268.14 22.6399C268.807 23.2399 269.246 24.0653 269.378 24.9685H268.14C268.06 24.3879 267.775 23.858 267.34 23.4808C266.891 23.1287 266.335 22.9512 265.772 22.9795C265.423 22.9532 265.072 23.0112 264.748 23.1487C264.424 23.2862 264.136 23.4996 263.906 23.7719C263.439 24.4544 263.217 25.2836 263.279 26.1167C263.217 26.9548 263.439 27.789 263.906 28.4777C264.139 28.7451 264.428 28.954 264.752 29.0886C265.075 29.2231 265.424 29.2797 265.772 29.2539C266.367 29.2867 266.955 29.1037 267.434 28.7365C267.868 28.3088 268.141 27.7355 268.202 27.1193L269.441 27.1355Z" fill="#180047"/>
<path d="M274.271 29.5127L273.518 31.4371C273.46 31.6296 273.37 31.8102 273.252 31.9707C273.206 32.0158 273.152 32.0506 273.092 32.0729C273.033 32.0952 272.97 32.1044 272.907 32.1001H270.758V33.4261H272.734C273.05 33.4437 273.366 33.3885 273.659 33.2644C273.878 33.1381 274.07 32.9676 274.224 32.7631C274.398 32.5182 274.53 32.2449 274.616 31.9545C274.726 31.6311 274.867 31.2592 275.024 30.8549L275.557 29.5127H274.271ZM274.02 30.2727H275.274L278.567 21.9607H277.282L274.02 30.2727ZM273.769 30.2727H274.992L271.746 21.9607H270.46L273.769 30.2727Z" fill="#180047"/>
<path d="M9.92587 29.9655H13.2188L22.0941 7.63287H18.6287L9.92587 29.9655ZM8.87527 29.9655H12.1682L3.46543 7.63287H0L8.87527 29.9655Z" fill="#180047"/>
<path d="M33.2271 5.25567H37.4296V0.921753H33.2742L33.2271 5.25567ZM37.21 28.3483V14.5542C37.364 12.6593 36.8022 10.7764 35.642 9.2985C35.0056 8.71338 34.2602 8.26821 33.4514 7.99016C32.6426 7.71212 31.7873 7.60705 30.9378 7.68137H25.1673V11.2067H32.0981L32.9292 11.3199C33.1193 11.3421 33.2991 11.4208 33.4467 11.5463C33.5904 11.6869 33.6796 11.8766 33.6976 12.08C33.6976 12.3225 33.6976 12.646 33.6976 13.0664V28.4292L37.21 28.3483ZM25.1673 29.9655H45.4738V26.521H25.0889L25.1673 29.9655Z" fill="#180047"/>
<path d="M63.193 7.63285H42.8081V11.0612H63.193V7.63285ZM49.5351 0.921753V23.0441C49.3916 24.9428 49.952 26.8269 51.1032 28.316C51.7327 28.9119 52.4772 29.364 53.2878 29.6427C54.0985 29.9214 54.9571 30.0203 55.8074 29.9331H63.193V26.3916H54.647C54.3547 26.4124 54.0613 26.4124 53.7689 26.3916C53.5807 26.3808 53.4026 26.3004 53.2671 26.1652C53.1392 26.0169 53.0621 25.8294 53.0476 25.6315C53.0274 25.3031 53.0274 24.9736 53.0476 24.6451V0.921753H49.5351Z" fill="#180047"/>
<path d="M83.8602 16.0258L81.5394 16.1713C80.8495 16.1713 80.0968 16.3007 79.2657 16.3492L76.9136 16.5271C75.6396 16.5907 74.3715 16.7475 73.1189 16.9961C71.9693 17.2226 70.8593 17.626 69.826 18.1927C68.866 18.6718 68.0402 19.3953 67.4268 20.295C66.8154 21.3002 66.5147 22.4732 66.5644 23.6587C66.492 25.442 67.0999 27.1835 68.2579 28.5101C68.9073 29.1733 69.687 29.6853 70.5444 30.0117C71.4019 30.3381 72.3172 30.4712 73.2287 30.4021C75.0112 30.464 76.786 30.1332 78.4347 29.4318C79.6367 28.9103 80.7014 28.1017 81.5411 27.0727C82.3808 26.0437 82.9714 24.8237 83.2643 23.5131C83.5641 22.2425 83.7168 20.9397 83.7191 19.632H82.0412C82.0393 20.5399 81.9447 21.4451 81.759 22.3326C81.5784 23.2242 81.209 24.0636 80.677 24.7906C80.0793 25.5785 79.2968 26.1963 78.4033 26.5857C77.2076 27.098 75.918 27.3353 74.6243 27.281C73.4421 27.3537 72.2637 27.0849 71.2216 26.5048C70.7973 26.1808 70.4636 25.7469 70.2544 25.2471C70.0451 24.7473 69.9676 24.1993 70.0298 23.6587C70.0071 22.9905 70.194 22.3326 70.563 21.7828C70.9714 21.2453 71.5132 20.8318 72.131 20.5861C72.8233 20.2627 73.5575 20.0448 74.3106 19.9392C75.1461 19.7929 75.989 19.6957 76.8352 19.6482C77.4781 19.6482 78.1995 19.5188 79.0149 19.4703L81.2886 19.2924L83.1075 19.1469H83.8445L83.8602 16.0258ZM82.0412 16.1713V24.8877C82.0321 25.6493 82.0688 26.4108 82.151 27.1678C82.1922 27.7336 82.3471 28.2843 82.6057 28.785C82.8443 29.2126 83.2221 29.5392 83.672 29.7067C84.3027 29.9262 84.967 30.0249 85.6321 29.9978H86.9022V26.3916H85.5067V16.8667C85.5193 15.5379 85.345 14.2143 84.9892 12.9371C84.6725 11.8193 84.139 10.7795 83.4211 9.88068C82.6822 9.01285 81.7593 8.33223 80.724 7.89161C79.4846 7.39721 78.1639 7.15556 76.8352 7.18007C75.4716 7.15475 74.1169 7.41325 72.8523 7.94012C71.7645 8.38752 70.7732 9.05254 69.9357 9.89685C69.1917 10.6697 68.5959 11.5805 68.1795 12.5813C67.7862 13.4987 67.5781 14.4891 67.568 15.4921H71.0334C71.0269 14.797 71.1943 14.112 71.5195 13.5031C71.8329 12.9272 72.2603 12.4258 72.7739 12.0315C73.3184 11.6145 73.9284 11.2972 74.5772 11.0935C75.2559 10.8669 75.9651 10.7523 76.6784 10.7539C77.3996 10.7048 78.123 10.8038 78.8067 11.0453C79.4905 11.2868 80.1209 11.666 80.6613 12.1608C81.1427 12.6981 81.5132 13.3306 81.7504 14.02C81.9876 14.7094 82.0865 15.4413 82.0412 16.1713Z" fill="#180047"/>
<path d="M106.973 16.9152L107.757 20.8449C107.732 19.0921 107.842 17.34 108.087 15.6053C108.219 14.4735 108.554 13.3767 109.075 12.3711C109.425 11.6794 109.972 11.115 110.643 10.7539C111.443 10.4254 112.299 10.2702 113.16 10.298C114.021 10.3258 114.866 10.5361 115.645 10.9157C116.29 11.3154 116.774 11.941 117.009 12.6783C117.362 13.5967 117.564 14.5697 117.605 15.5568C117.605 16.6349 117.605 17.8801 117.605 19.2924V30.1919H121.055V18.6617C121.045 17.1363 120.94 15.613 120.741 14.1014C120.612 12.8669 120.267 11.6669 119.722 10.5599C119.249 9.58923 118.514 8.78047 117.605 8.23122C116.489 7.63176 115.239 7.34723 113.983 7.40648C112.856 7.38729 111.738 7.61895 110.705 8.08568C109.859 8.45918 109.134 9.07686 108.62 9.86452C108.052 10.8043 107.664 11.8471 107.475 12.9371C107.211 14.2755 107.043 15.6322 106.973 16.9961V16.9152ZM93.7232 16.9961L94.4132 20.9257C94.3882 19.1718 94.5088 17.4189 94.7738 15.6862C94.9448 14.5591 95.2889 13.4673 95.7931 12.4519C96.1355 11.7544 96.6848 11.1879 97.3612 10.8348C98.0512 10.5174 98.8011 10.3627 99.5565 10.382C100.528 10.3265 101.497 10.5386 102.363 10.9965C103.014 11.3933 103.504 12.0193 103.743 12.7592C104.043 13.6707 104.197 14.6266 104.198 15.5892C104.198 16.6673 104.198 17.9125 104.198 19.3248V30.2242H107.663V18.6617C107.669 17.1373 107.58 15.6141 107.397 14.1014C107.268 12.8669 106.923 11.6669 106.378 10.5599C105.905 9.58923 105.169 8.78047 104.261 8.23122C103.145 7.63176 101.895 7.34723 100.638 7.40648C99.5172 7.3955 98.4061 7.62687 97.3768 8.08568C96.5257 8.45891 95.7964 9.07632 95.2756 9.86452C94.6846 10.797 94.2795 11.8415 94.0839 12.9371C93.8658 14.2517 93.7452 15.5816 93.7232 16.9152V16.9961ZM90.9478 30.1919H94.4132V7.85928H90.9478V30.1919Z" fill="#180047"/>
<path d="M132.847 5.25567H137.049V0.921753H132.894L132.847 5.25567ZM136.83 28.3483V14.5542C136.976 12.6602 136.415 10.7803 135.262 9.2985C134.625 8.71338 133.88 8.26821 133.071 7.99016C132.262 7.71212 131.407 7.60705 130.558 7.68137H124.787V11.2067H131.718H132.565C132.755 11.2289 132.935 11.3076 133.082 11.4331C133.221 11.5753 133.305 11.7652 133.317 11.9668C133.338 12.2953 133.338 12.6247 133.317 12.9532V28.316L136.83 28.3483ZM124.787 29.9655H145.172V26.521H124.787V29.9655Z" fill="#180047"/>
<path d="M148.966 29.9655H152.432V7.63287H148.966V29.9655ZM151.742 16.6888L152.432 20.6346C152.385 18.8613 152.591 17.0906 153.043 15.3789C153.341 14.1998 153.876 13.0981 154.611 12.1447C155.191 11.4144 155.949 10.8562 156.807 10.5275C157.595 10.2277 158.428 10.0743 159.269 10.0747C160.345 10.0376 161.416 10.2475 162.405 10.6893C163.23 11.0759 163.94 11.6848 164.459 12.4519C165.023 13.3032 165.408 14.2674 165.588 15.2819C165.804 16.5144 165.909 17.765 165.901 19.0175V29.917H169.367V18.4353C169.383 16.8957 169.193 15.3611 168.802 13.875C168.477 12.5942 167.912 11.3912 167.14 10.3335C166.364 9.34593 165.362 8.57338 164.224 8.08567C162.998 7.51487 161.664 7.23312 160.319 7.26093C159.164 7.18197 158.006 7.36066 156.923 7.78482C155.841 8.20899 154.86 8.86867 154.047 9.71897C152.499 11.6904 151.657 14.152 151.663 16.6888H151.742Z" fill="#180047"/>
</g>
<defs>
<clipPath id="clip0_97_3281">
<rect width="286" height="37" fill="white"/>
</clipPath>
</defs>
</svg>
