<svg width="25" height="25" viewBox="0 0 25 25" fill="none" xmlns="http://www.w3.org/2000/svg">
<g clip-path="url(#clip0_97_3538)">
<path d="M23.7162 9.0997L11.0108 21.664C8.90564 23.746 5.49213 23.746 3.38693 21.664C1.28174 19.582 1.28174 16.2069 3.38693 14.1249L14.8224 2.81712C16.2261 1.4294 18.5009 1.4294 19.9047 2.81712C21.3085 4.20481 21.3085 6.45551 19.9047 7.8432L8.46923 19.151C7.7678 19.8453 6.62996 19.8453 5.92763 19.151C5.2262 18.4576 5.2262 17.3323 5.92763 16.638L16.0923 6.58666L14.8215 5.33016L4.65775 15.3823C3.25399 16.77 3.25399 19.0207 4.65775 20.4084C6.06151 21.7961 8.33629 21.7961 9.74006 20.4084L21.1755 9.10059C23.2807 7.01862 23.2807 3.6435 21.1755 1.56148C19.0703 -0.520494 15.6568 -0.520494 13.5516 1.56148L1.48074 13.4975L1.52448 13.5412C-0.668195 16.3291 -0.475434 20.3593 2.11615 22.9214C4.70774 25.4835 8.78159 25.6754 11.6016 23.5059L11.6453 23.5497L24.9861 10.3571L23.7162 9.0997Z" fill="white"/>
</g>
<defs>
<clipPath id="clip0_97_3538">
<rect width="25" height="25" fill="white"/>
</clipPath>
</defs>
</svg>
