<?xml version="1.0" encoding="utf-8"?><svg viewBox="0 0 29 29" xmlns="http://www.w3.org/2000/svg" xmlns:xlink="http://www.w3.org/1999/xlink"><style>:root>svg{display:none}:root>svg:target{display:block}</style><svg fill="none" viewBox="0 0 20 26" id="arrow" xmlns="http://www.w3.org/2000/svg"><path d="M0 10.997l1.75 1.75 7-7v20.25h2.5V5.747l7 7 1.75-1.75-10-10-10 10z" fill="#fff"/></svg><svg viewBox="0 0 29 29" id="arrow-task" xmlns="http://www.w3.org/2000/svg"><path d="M27.625.281H1.375a1.094 1.094 0 000 2.188h23.61L.601 26.852a1.094 1.094 0 101.546 1.546L26.531 4.015v23.61a1.094 1.094 0 002.188 0V1.375c0-.604-.49-1.094-1.094-1.094z"/></svg><svg fill="none" viewBox="0 0 25 25" id="phone" xmlns="http://www.w3.org/2000/svg"><path d="M18.61 25c-1.904 0-4.24-.877-6.814-2.604C6.593 18.904.504 11.738.032 6.896-.12 5.347.269 4.098 1.186 3.18L4.366 0l6.478 6.477-.518.517c-.827.827-2.18 2.178-3.148 3.139.89 1.307 2.609 3.24 3.877 4.508 1.2 1.2 2.59 2.29 3.841 3.127.902-.908 2.116-2.125 3.109-3.12l.518-.518L25 20.608l-3.142 3.142c-.836.836-1.94 1.25-3.248 1.25z" fill="#fff"/></svg></svg>