<svg width="26" height="26" viewBox="0 0 26 26" fill="none" xmlns="http://www.w3.org/2000/svg">
<path d="M21.818 4.18206C19.7372 2.08047 16.9738 0.791631 14.0264 0.548024C11.079 0.304417 8.14156 1.12208 5.74392 2.85352C3.34628 4.58497 1.64629 7.11621 0.950588 9.99068C0.254884 12.8651 0.609264 15.8936 1.94981 18.5298L0.633897 24.9184C0.620243 24.982 0.619856 25.0477 0.632761 25.1115C0.645666 25.1752 0.671584 25.2356 0.708896 25.2889C0.763555 25.3697 0.841578 25.432 0.932544 25.4673C1.02351 25.5026 1.12309 25.5094 1.21799 25.4866L7.47935 24.0025C10.1081 25.3091 13.1152 25.6407 15.9655 24.9383C18.8158 24.2359 21.3245 22.545 23.0452 20.1665C24.7658 17.7881 25.5868 14.8763 25.3621 11.9493C25.1374 9.02234 23.8815 6.27001 21.818 4.18206ZM19.8657 19.7639C18.426 21.1996 16.5721 22.1473 14.5652 22.4735C12.5583 22.7996 10.4996 22.4879 8.67935 21.5821L7.80662 21.1502L3.96799 22.0593L3.97935 22.0116L4.77481 18.148L4.34753 17.3048C3.41744 15.4781 3.08934 13.404 3.41023 11.3794C3.73112 9.35489 4.68453 7.48385 6.1339 6.03434C7.95504 4.21375 10.4247 3.19101 12.9998 3.19101C15.5749 3.19101 18.0446 4.21375 19.8657 6.03434C19.8812 6.05212 19.8979 6.06883 19.9157 6.08434C21.7143 7.90961 22.7183 10.3719 22.709 12.9344C22.6996 15.4969 21.6776 17.9518 19.8657 19.7639Z" fill="white"/>
<path d="M19.5249 16.9298C19.0545 17.6707 18.3113 18.5776 17.3772 18.8026C15.7408 19.198 13.2295 18.8162 10.1045 15.9026L10.0658 15.8685C7.31811 13.3207 6.60447 11.2003 6.7772 9.51847C6.87266 8.56392 7.66811 7.70029 8.33857 7.13665C8.44456 7.04618 8.57026 6.98177 8.7056 6.94857C8.84094 6.91537 8.98217 6.9143 9.118 6.94544C9.25383 6.97658 9.38049 7.03907 9.48785 7.12792C9.59521 7.21676 9.68029 7.3295 9.73629 7.4571L10.7477 9.72983C10.8134 9.8772 10.8377 10.0397 10.8181 10.1998C10.7985 10.36 10.7356 10.5118 10.6363 10.6389L10.1249 11.3026C10.0152 11.4396 9.949 11.6063 9.93482 11.7813C9.92064 11.9563 9.95915 12.1315 10.0454 12.2844C10.3317 12.7866 11.0181 13.5253 11.7795 14.2094C12.634 14.9821 13.5817 15.6889 14.1817 15.9298C14.3423 15.9954 14.5188 16.0114 14.6885 15.9758C14.8583 15.9401 15.0134 15.8545 15.134 15.7298L15.7272 15.1321C15.8417 15.0192 15.984 14.9387 16.1397 14.8988C16.2954 14.8589 16.4589 14.861 16.6136 14.9048L19.0158 15.5866C19.1484 15.6273 19.2698 15.6977 19.3709 15.7925C19.4721 15.8873 19.5502 16.004 19.5993 16.1336C19.6484 16.2632 19.6673 16.4023 19.6544 16.5403C19.6415 16.6783 19.5972 16.8116 19.5249 16.9298Z" fill="white"/>
</svg>
