<svg width="100" height="103" viewBox="0 0 100 103" fill="none" xmlns="http://www.w3.org/2000/svg">
<path d="M43.6346 43L19 5.83281L27.6603 0L50.5897 34.4995L73.4295 0L82 5.74238L57.3654 43H43.6346Z" fill="#297BFF"/>
<path d="M43.6346 60L19 97.1611L27.6603 103L50.5897 68.5095L73.4295 103L82 97.2516L57.3654 60H43.6346Z" fill="#297BFF"/>
<path d="M59 45.0256L94.4385 20L100 28.8433L67.1052 52.0912L100 75.339L94.5248 84L59 58.9744V45.0256Z" fill="#FF0000"/>
<path d="M42 45.0256L5.70316 20L0 28.8433L33.6884 52.0912L0 75.339L5.61476 84L42 58.9744V45.0256Z" fill="#FF0000"/>
</svg>
